<svg width="43" height="72" viewBox="0 0 43 72" fill="none" xmlns="http://www.w3.org/2000/svg">
<path fill-rule="evenodd" clip-rule="evenodd" d="M32.2149 30.8588H11.8869V42.6482C11.8869 44.8574 13.8083 46.6482 16.1784 46.6482H27.9234C30.2935 46.6482 32.2149 44.8574 32.2149 42.6482V30.8588ZM16.1784 45.1482C14.6971 45.1482 13.4962 44.0289 13.4962 42.6482V32.3588H30.6056V42.6482C30.6056 44.0289 29.4048 45.1482 27.9234 45.1482H16.1784Z" fill="#262626"/>
<path d="M18.3382 36.06V29.8681C18.3382 27.9569 20.0005 26.4075 22.0509 26.4075C24.1014 26.4075 25.7636 27.9569 25.7636 29.8681V36.06C25.7636 36.4742 26.1238 36.81 26.5682 36.81C27.0126 36.81 27.3729 36.4742 27.3729 36.06V29.8681C27.3729 27.1284 24.9902 24.9075 22.0509 24.9075C19.1117 24.9075 16.7289 27.1284 16.7289 29.8681V36.06C16.7289 36.4742 17.0892 36.81 17.5336 36.81C17.978 36.81 18.3382 36.4742 18.3382 36.06Z" fill="#262626"/>
</svg>
