<svg width="129" height="14" viewBox="0 0 129 14" fill="none" xmlns="http://www.w3.org/2000/svg">
<path d="M10.4514 1.52882V8.16343C10.4514 10.375 9.41984 11.2884 6.944 11.2884C4.46816 11.2884 3.43656 10.375 3.43656 8.16343V1.24036H1.06387C0.909135 1.24036 0.754395 1.38459 0.754395 1.52882V8.25959C0.754395 11.9615 3.28182 13.2596 6.944 13.2596C10.6062 13.2596 13.1336 11.9615 13.1336 8.25959V1.24036H10.7609C10.6062 1.24036 10.4514 1.33651 10.4514 1.52882V1.52882Z" fill="black"/>
<path d="M44.9584 3.16343C45.1647 3.16343 45.2679 3.11536 45.3195 2.97113L45.99 1.38459C46.0416 1.28843 45.99 1.24036 45.8869 1.24036H36.293C35.4161 1.24036 35.0551 1.48074 35.0551 2.05766V12.3461C35.0551 12.8269 35.313 13.0673 35.9835 13.0673H44.9068C45.1132 13.0673 45.2163 13.0192 45.2679 12.875L45.9384 11.2884C45.99 11.1923 45.9384 11.1442 45.8353 11.1442H37.6856V9.02882C37.6856 8.30766 38.0983 7.97113 39.2846 7.97113H42.8436C43.05 7.97113 43.1531 7.92305 43.2047 7.77882L43.8752 6.24036C43.9268 6.1442 43.8752 6.09613 43.7721 6.09613H37.7372V3.11536H44.9584V3.16343Z" fill="black"/>
<path fill-rule="evenodd" clip-rule="evenodd" d="M28.0918 6.81728C29.1234 6.28843 29.5361 5.37497 29.5361 4.22113C29.5361 1.62497 27.2666 1.24036 24.8939 1.24036H19.478C18.6011 1.24036 18.2401 1.48074 18.2401 2.05766V12.3461C18.2401 12.8269 18.498 13.0673 19.1685 13.0673H25.8223C28.3497 13.0673 30.1035 12.1538 30.1035 9.79805C30.155 8.35574 29.5361 7.15382 28.0918 6.81728ZM20.9222 3.11536H25.1002C26.4928 3.11536 26.9055 3.59613 26.9055 4.60574C26.9055 5.61536 26.4928 6.09613 25.1002 6.09613H20.9222V3.11536ZM20.9222 11.1442H25.616C27.1118 11.1442 27.5244 10.6634 27.5244 9.55765C27.5244 8.45188 27.1118 7.92303 25.616 7.92303H22.5212C21.3348 7.92303 20.9222 8.25957 20.9222 8.98073V11.1442Z" fill="black"/>
<path fill-rule="evenodd" clip-rule="evenodd" d="M59.7619 8.30766L62.5988 12.875C62.6503 12.923 62.6503 13.0673 62.5472 13.0673H60.1229C59.9166 13.0673 59.865 13.0192 59.7619 12.875L57.1829 8.54805H54.8618C53.6754 8.54805 53.2628 8.88459 53.2628 9.60574V13.0673H50.9417C50.7869 13.0673 50.6322 12.923 50.6322 12.7788V2.05766C50.6322 1.48074 50.9933 1.24036 51.8701 1.24036H57.286C60.4324 1.24036 62.3409 2.00959 62.3409 4.8942C62.3409 7.10574 61.1545 7.97113 59.7619 8.30766ZM53.2112 6.72113H57.6471C59.2977 6.72113 59.6588 6.1442 59.6588 4.8942C59.6588 3.69228 59.2977 3.11536 57.6471 3.11536H53.2112V6.72113Z" fill="black"/>
<path d="M82.354 12.0096L82.3024 13.0673H72.9149V1.24036H81.9414L81.9929 2.34613H74.2044V6.43266H80.9098V7.3942H74.2044V12.0096H82.354V12.0096Z" fill="#57AD56" stroke="#57AD56" stroke-width="0.25"/>
<path fill-rule="evenodd" clip-rule="evenodd" d="M90.1426 9.99036H97.6217L99.0659 13.0673H100.51L94.6816 1.24036H93.1858L87.3057 13.0673H88.6983L90.1426 9.99036ZM90.6068 8.98076L93.3405 3.2596L93.8563 2.05768H93.9079L94.4237 3.2596L97.1058 8.98076H90.6068Z" fill="#57AD56"/>
<path d="M97.6217 9.99036L97.7348 9.93724L97.7011 9.86536H97.6217V9.99036ZM90.1426 9.99036V9.86536H90.0632L90.0294 9.93724L90.1426 9.99036ZM99.0659 13.0673L98.9528 13.1204L98.9865 13.1923H99.0659V13.0673ZM100.51 13.0673V13.1923H100.711L100.622 13.012L100.51 13.0673ZM94.6816 1.24036L94.7937 1.1851L94.7594 1.11536H94.6816V1.24036ZM93.1858 1.24036V1.11536H93.1083L93.0739 1.18471L93.1858 1.24036ZM87.3057 13.0673L87.1937 13.0116L87.1039 13.1923H87.3057V13.0673ZM88.6983 13.0673V13.1923H88.7777L88.8115 13.1204L88.6983 13.0673ZM93.3405 3.2596L93.4534 3.31354L93.4554 3.3089L93.3405 3.2596ZM90.6068 8.98076L90.494 8.92686L90.4085 9.10576H90.6068V8.98076ZM93.8563 2.05768V1.93268H93.7739L93.7414 2.00838L93.8563 2.05768ZM93.9079 2.05768L94.0228 2.00838L93.9903 1.93268H93.9079V2.05768ZM94.4237 3.2596L94.3088 3.30892L94.3105 3.31266L94.4237 3.2596ZM97.1058 8.98076V9.10576H97.3025L97.219 8.9277L97.1058 8.98076ZM97.6217 9.86536H90.1426V10.1154H97.6217V9.86536ZM99.1791 13.0142L97.7348 9.93724L97.5085 10.0435L98.9528 13.1204L99.1791 13.0142ZM100.51 12.9423H99.0659V13.1923H100.51V12.9423ZM94.5695 1.29561L100.398 13.1225L100.622 13.012L94.7937 1.1851L94.5695 1.29561ZM93.1858 1.36536H94.6816V1.11536H93.1858V1.36536ZM87.4176 13.1229L93.2977 1.29601L93.0739 1.18471L87.1937 13.0116L87.4176 13.1229ZM88.6983 12.9423H87.3057V13.1923H88.6983V12.9423ZM90.0294 9.93724L88.5852 13.0142L88.8115 13.1204L90.2557 10.0435L90.0294 9.93724ZM93.2277 3.20571L90.494 8.92686L90.7196 9.03465L93.4533 3.31349L93.2277 3.20571ZM93.7414 2.00838L93.2256 3.21031L93.4554 3.3089L93.9712 2.10697L93.7414 2.00838ZM93.9079 1.93268H93.8563V2.18268H93.9079V1.93268ZM94.5386 3.21031L94.0228 2.00838L93.793 2.10697L94.3088 3.3089L94.5386 3.21031ZM97.219 8.9277L94.5369 3.20654L94.3105 3.31266L96.9927 9.03382L97.219 8.9277ZM90.6068 9.10576H97.1058V8.85576H90.6068V9.10576Z" fill="#57AD56"/>
<path d="M109.795 2.34613V13.0673H108.505V2.34613H103.76L103.811 1.24036H114.592V2.34613H109.795V2.34613Z" fill="#57AD56" stroke="#57AD56" stroke-width="0.25"/>
<path d="M123.773 13.3077C122.019 13.3077 120.626 12.9231 119.492 12.2981L119.698 11.2404C120.884 11.8654 122.225 12.25 123.824 12.25C126.197 12.25 127.435 11.2404 127.435 9.79808C127.435 6.67308 119.698 8.30769 119.698 4.26923C119.698 2.53846 121.091 1 124.34 1C125.836 1 127.177 1.24038 128.26 1.72115L128.054 2.73077C126.868 2.29808 125.733 2.05769 124.392 2.05769C121.864 2.05769 120.936 3.11538 120.936 4.17308C120.936 7.15385 128.673 5.47115 128.673 9.70192C128.621 11.8173 126.971 13.3077 123.773 13.3077V13.3077Z" fill="#57AD56" stroke="#57AD56" stroke-width="0.25"/>
</svg>
